<?xml version="1.0" encoding="iso-8859-1"?>
<!-- Uploaded to: SVG Repo, www.svgrepo.com, Generator: SVG Repo Mixer Tools -->
<svg fill="#000000" height="800px" width="800px" version="1.1" id="Layer_1" xmlns="http://www.w3.org/2000/svg" xmlns:xlink="http://www.w3.org/1999/xlink" 
	 viewBox="0 0 225.356 225.356" xml:space="preserve">
<g>
	<g>
		<g>
			<path d="M181.482,76.372c0.444,0,0.888-0.008,1.336-0.024c17.912-0.632,31.696-13.956,32.272-14.52l1.564-1.532l-1.668-1.416
				c-0.616-0.524-15.276-12.816-33.216-12.204c-6.804,0.24-13.008,2.316-18.124,4.824c1.232-2.368,2.284-5,2.912-7.884
				c2.676-12.256-3.236-23.76-3.488-24.244l-1.108-2.12l-1.888,1.464c-0.38,0.292-8.292,6.528-12.012,16.368
				c0.084-14.504,3.504-26.78,3.54-26.904l0.076-0.544c0-2.64-0.656-4.548-2-5.828c-2.152-2.044-5.292-1.888-8.928-1.708
				c-1.068,0.056-2.196,0.112-3.36,0.112h-7.76c-1.168,0-2.292-0.056-3.36-0.112c-3.62-0.184-6.772-0.336-8.928,1.708
				c-1.344,1.28-2,3.184-2,5.828l0.084,0.564c0.036,0.12,3.54,12.216,3.54,27.416c0,15.2-3.504,27.296-3.54,27.416l-0.084,0.564
				c0,2.572,0.632,4.436,1.908,5.712c-1.276,1.276-1.908,3.14-1.908,5.712l0.084,0.564c0.036,0.12,3.54,12.216,3.54,27.416
				c0,3.768-0.24,7.284-0.564,10.532c-9.872,5.66-16.568,14.132-20.184,19.664c-0.348-3.348-0.588-7.016-0.588-10.84
				c0-14.736,3.512-27.312,3.548-27.436l0.076-0.544c0-2.52-0.616-4.356-1.84-5.632c1.224-1.276,1.84-3.108,1.84-5.628l-0.076-0.548
				c-0.036-0.124-3.548-12.668-3.548-27.432c0-14.736,3.512-27.308,3.548-27.432l0.076-0.544c0-2.64-0.656-4.548-2-5.828
				c-2.156-2.048-5.292-1.896-8.928-1.708c-1.068,0.056-2.196,0.112-3.36,0.112h-7.76c-1.168,0-2.292-0.056-3.36-0.112
				c-3.628-0.18-6.776-0.34-8.928,1.708c-1.344,1.28-2,3.184-2,5.828l0.084,0.564c0.028,0.1,2.504,8.668,3.292,20.416
				c-0.36-1.3-0.8-2.604-1.36-3.896C61.946,32.732,50.43,26.844,49.942,26.6l-2.136-1.076l-0.68,2.292
				c-0.104,0.352-1.728,6.036-1.308,13.2c-15.392-9.172-34.184-5.456-34.972-5.288l-2.144,0.44l0.632,2.096
				c0.232,0.772,5.9,19.084,21.288,28.264c8.404,5.012,17.824,6.18,24.776,6.18c0.404,0,0.78-0.012,1.168-0.02
				c-4.252,1.456-9.316,3.916-13.508,8.084c-8.892,8.848-10.168,21.72-10.216,22.264l-0.22,2.38l2.384-0.208
				c0.544-0.048,13.42-1.252,22.316-10.1c3.704-3.688,6.076-8.064,7.596-11.968c0.004,2.508,0.62,4.336,1.84,5.608
				c-1.224,1.276-1.84,3.112-1.84,5.632l0.084,0.564c0.036,0.12,3.54,12.216,3.54,27.416c0,15.196-3.504,27.292-3.54,27.416
				l-0.084,0.564c0,2.572,0.632,4.436,1.908,5.712c-1.276,1.276-1.908,3.14-1.908,5.712l0.084,0.564
				c0.036,0.12,3.54,12.216,3.54,27.416s-3.504,27.296-3.54,27.416l-0.084,0.564c0,2.64,0.656,4.544,2,5.824
				c1.552,1.476,3.62,1.808,6.02,1.808c0.924,0,1.896-0.048,2.908-0.1c1.068-0.056,2.196-0.112,3.36-0.112h7.76
				c1.168,0,2.296,0.056,3.36,0.112c3.64,0.184,6.78,0.336,8.928-1.708c1.344-1.28,2-3.184,2-5.824l-0.076-0.548
				c-0.036-0.124-3.548-12.668-3.548-27.432c0-14.736,3.512-27.312,3.548-27.436l0.076-0.544c0-2.572-0.632-4.436-1.908-5.712
				c0.424-0.424,0.756-0.932,1.036-1.488c4.856,10.072,13.712,24.12,28.224,33.032c13.688,8.412,29.212,10.28,40.316,10.28
				c8.46,0,14.352-1.088,14.9-1.192l2.152-0.412l-0.604-2.104c-0.352-1.232-8.936-30.324-33.064-45.144
				c-7.14-4.388-14.756-6.96-21.996-8.44c1.472-0.492,2.944-1.04,4.408-1.704c0.328-0.148,0.632-0.324,0.956-0.48h1.72
				c1.168,0,2.296,0.056,3.36,0.112c1.012,0.052,1.984,0.1,2.908,0.1c2.4,0,4.468-0.332,6.02-1.808c1.344-1.28,2-3.184,2-5.824
				l-0.076-0.548c-0.012-0.036-0.336-1.224-0.78-3.208c7.244-7.516,10.94-15.036,11.176-15.524l1.036-2.156l-2.304-0.64
				c-0.408-0.116-5.412-1.46-12.524-1.82c-0.064-1.352-0.152-2.676-0.152-4.084c0-14.736,3.512-27.312,3.548-27.436l0.076-0.544
				c0-2.572-0.632-4.436-1.908-5.712c0.908-0.912,1.48-2.128,1.74-3.68C155.958,68.888,167.65,76.372,181.482,76.372z
				 M43.794,44.452c0.968,0.576,1.856,1.232,2.736,1.892c0.412,1.96,1,3.956,1.852,5.928c2.22,5.12,5.724,9.12,8.98,12.012
				L15.526,39.131C21.57,38.56,33.63,38.396,43.794,44.452z M14.522,40.644l15.544,9.344l-8.484,2.864
				C18.098,48.271,15.81,43.692,14.522,40.644z M28.782,60.38c-2.292-1.836-4.276-3.896-6.02-6.008l9.344-3.156l8.772,5.276
				L28.782,60.38z M32.678,63.088c-0.712-0.424-1.34-0.928-2.012-1.4l11.96-3.848c0.096-0.032,0.132-0.12,0.208-0.176l8.784,5.284
				l-10.82,3.656C38.054,65.771,35.298,64.652,32.678,63.088z M44.042,67.428l9.384-3.172c0.068-0.024,0.092-0.096,0.152-0.132
				l7.156,4.304C56.85,68.779,50.654,68.888,44.042,67.428z M54.506,92.268c-5.616,5.588-13.304,7.756-17.256,8.544
				c0.8-3.944,3-11.604,8.636-17.208c5.616-5.584,13.296-7.756,17.252-8.544C62.33,79.012,60.122,86.68,54.506,92.268z
				 M64.27,64.588c-3.384-2.196-9.716-7.056-12.864-14.324c-3.152-7.268-2.364-15.216-1.648-19.184
				c3.38,2.184,9.7,7.032,12.86,14.328C65.77,52.676,64.982,60.62,64.27,64.588z M68.922,94.104c0.028-1.32,0.28-2.212,0.752-2.66
				c0.912-0.86,3.368-0.74,5.972-0.608c1.132,0.056,2.328,0.116,3.56,0.116h7.76c1.236,0,2.432-0.06,3.564-0.116
				c2.604-0.132,5.064-0.252,5.972,0.608c0.472,0.448,0.724,1.344,0.752,2.668c-0.552,2.028-3.62,13.992-3.62,28.244
				c0,6.66,0.676,12.808,1.444,17.688l0.016,0.1c0.876,5.504,1.868,9.376,2.16,10.448c-0.028,1.324-0.284,2.22-0.752,2.668
				c-0.912,0.864-3.372,0.744-5.972,0.608c-1.132-0.056-2.328-0.116-3.564-0.116h-7.76c-1.236,0-2.428,0.06-3.56,0.116
				c-2.604,0.132-5.064,0.252-5.972-0.608c-0.468-0.448-0.72-1.34-0.752-2.66c0.564-2.02,3.62-13.596,3.62-28.248
				C72.542,107.696,69.486,96.12,68.922,94.104z M97.258,217.98c-0.028,1.32-0.28,2.216-0.752,2.664
				c-0.908,0.864-3.368,0.744-5.972,0.608c-1.132-0.056-2.328-0.116-3.564-0.116h-7.76c-1.236,0-2.432,0.06-3.564,0.116
				c-2.596,0.132-5.06,0.252-5.972-0.608c-0.468-0.448-0.72-1.34-0.752-2.656c0.564-2.02,3.62-13.596,3.62-28.248
				s-3.056-26.232-3.62-28.248c0.028-1.316,0.28-2.208,0.752-2.656c0.912-0.864,3.376-0.74,5.972-0.608
				c1.132,0.056,2.328,0.116,3.564,0.116h7.76c1.236,0,2.432-0.06,3.564-0.116c2.604-0.136,5.064-0.252,5.972,0.608
				c0.472,0.448,0.724,1.344,0.752,2.664c-0.552,2.028-3.62,13.992-3.62,28.244C93.638,203.995,96.706,215.956,97.258,217.98z
				 M97.258,83.376c-0.028,1.324-0.28,2.216-0.752,2.664c-0.908,0.864-3.364,0.748-5.972,0.612c-1.132-0.06-2.328-0.116-3.564-0.116
				h-7.76c-1.236,0-2.432,0.06-3.564,0.116c-2.596,0.136-5.06,0.252-5.968-0.612c-0.468-0.444-0.72-1.336-0.752-2.656
				c0.564-2.02,3.62-13.596,3.62-28.248c0-14.652-3.056-26.228-3.62-28.248c0.028-1.32,0.28-2.212,0.752-2.66
				c0.912-0.864,3.368-0.74,5.972-0.608c1.132,0.056,2.328,0.116,3.56,0.116h7.76c1.236,0,2.432-0.06,3.564-0.116
				c2.604-0.128,5.064-0.256,5.972,0.608c0.468,0.448,0.724,1.344,0.752,2.668c-0.552,2.028-3.62,13.992-3.62,28.24
				S96.706,81.348,97.258,83.376z M144.182,107.008c-6.504,0.06-14.152,1.084-21.556,4.372c0.204-2.648,0.352-5.428,0.352-8.384
				c0-14.656-3.056-26.232-3.62-28.248c0.024-1.32,0.272-2.212,0.744-2.66c0.908-0.864,3.368-0.74,5.972-0.608
				c1.132,0.056,2.328,0.116,3.564,0.116h7.76c1.236,0,2.432-0.06,3.564-0.116c2.596-0.128,5.06-0.252,5.972,0.608
				c0.472,0.448,0.724,1.344,0.752,2.664c-0.552,2.028-3.62,13.992-3.62,28.244C144.066,104.372,144.126,105.688,144.182,107.008z
				 M138.162,111.408l-3.068,9.844l-8.816,3.852l3.516-12.048C132.622,112.244,135.442,111.708,138.162,111.408z M119.35,7.36
				c0.028-1.32,0.28-2.212,0.752-2.66c0.908-0.864,3.368-0.74,5.972-0.608c1.132,0.056,2.328,0.116,3.56,0.116h7.76
				c1.236,0,2.428-0.06,3.56-0.116c2.604-0.128,5.064-0.256,5.972,0.608c0.472,0.448,0.724,1.344,0.752,2.668
				c-0.552,2.028-3.62,13.992-3.62,28.24c0,14.248,3.072,26.216,3.62,28.244c-0.028,1.324-0.28,2.22-0.752,2.668
				c-0.912,0.864-3.368,0.74-5.972,0.608c-1.132-0.056-2.328-0.116-3.56-0.116h-7.76c-1.236,0-2.428,0.06-3.56,0.116
				c-2.604,0.132-5.064,0.256-5.972-0.608c-0.468-0.448-0.72-1.34-0.752-2.66c0.564-2.02,3.62-13.596,3.62-28.248
				C122.97,20.956,119.914,9.38,119.35,7.36z M123.962,115.148c1.232-0.56,2.488-0.988,3.736-1.416l-3.596,12.32l-9.848,4.3
				l3.544-11.684C119.73,117.372,121.75,116.152,123.962,115.148z M115.402,120.331l-3.288,10.84
				c-0.012,0.04,0.016,0.072,0.012,0.112l-10.972,4.792C103.818,131.908,108.598,125.52,115.402,120.331z M150.214,152.428
				c19.096,11.732,28.124,33.7,30.588,40.664c-7.324,0.948-30.972,2.84-50.096-8.912c-19.096-11.732-28.124-33.7-30.588-40.664
				C107.434,142.563,131.086,140.675,150.214,152.428z M146.93,133.899c-0.76,0.72-2.608,0.748-4.704,0.664
				c1.884-1.308,3.636-2.696,5.248-4.132c0.08,0.316,0.164,0.632,0.208,0.804C147.65,132.555,147.398,133.456,146.93,133.899z
				 M133.066,135.232c-12.592,5.712-26.44,4.168-32.512,3.068l55.42-24.152C152.346,119.856,144.658,129.98,133.066,135.232z
				 M156.198,112.036l-18.908,8.256l2.82-9.052C146.834,110.735,152.69,111.416,156.198,112.036z M155.402,63.436l10.804-0.396
				c0.032,0.06,0.02,0.136,0.068,0.188l7.584,8.304C165.826,69.844,159.138,65.968,155.402,63.436z M182.678,72.352
				c-2.032,0.076-4-0.088-5.936-0.348l-8.26-9.044l10.82-0.396c-0.016,0.236,0.056,0.48,0.228,0.668l7.872,8.624
				C185.87,72.12,184.29,72.292,182.678,72.352z M189.43,71.376l-8.112-8.884l9.928-0.364l6.048,6.624
				C194.866,69.824,192.23,70.724,189.43,71.376z M199.022,67.952l-5.4-5.916l15.732-0.576
				C207.038,63.292,203.474,65.779,199.022,67.952z M181.914,50.664c11.884-0.424,22.388,5.584,27.384,8.984l-53.132,1.944
				c0.652-0.652,1.38-1.428,2.14-2.304C163.706,55.584,172.254,51.008,181.914,50.664z M150.714,40.148
				c1.688-7.736,6.968-13.724,9.864-16.532c1.464,3.756,3.768,11.404,2.08,19.14c-1.228,5.616-4.336,10.288-7.06,13.516
				c-1.18,0.828-2.208,1.608-3.068,2.296C151.07,54.612,149.122,47.443,150.714,40.148z"/>
			<path d="M74.898,29.644c2.056,9.104,2.544,18.22,1.524,27.484c-0.16,1.448,2.108,1.436,2.268,0
				c1.044-9.48,0.496-18.792-1.604-28.088C76.762,27.616,74.574,28.219,74.898,29.644z"/>
			<path d="M125.266,77.16c2.056,9.1,2.544,18.216,1.524,27.484c-0.16,1.448,2.108,1.436,2.268,0
				c1.044-9.48,0.496-18.792-1.604-28.088C127.134,75.132,124.946,75.736,125.266,77.16z"/>
			<path d="M76.302,61.504c-0.28,2.924-0.528,5.852-0.744,8.784c-0.108,1.456,2.16,1.448,2.268,0
				c0.216-2.932,0.464-5.856,0.744-8.784C78.71,60.052,76.442,60.06,76.302,61.504z"/>
		</g>
	</g>
</g>
</svg>