<!DOCTYPE svg PUBLIC "-//W3C//DTD SVG 1.1//EN" "http://www.w3.org/Graphics/SVG/1.1/DTD/svg11.dtd">
<!-- Uploaded to: SVG Repo, www.svgrepo.com, Transformed by: SVG Repo Mixer Tools -->
<svg fill="#ffffff" version="1.1" id="Capa_1" xmlns="http://www.w3.org/2000/svg" xmlns:xlink="http://www.w3.org/1999/xlink" width="800px" height="800px" viewBox="0 0 45.204 45.204" xml:space="preserve">
<g id="SVGRepo_bgCarrier" stroke-width="0"/>
<g id="SVGRepo_tracerCarrier" stroke-linecap="round" stroke-linejoin="round"/>
<g id="SVGRepo_iconCarrier"> <g> <g> <path d="M3.771,9.035c0.462,0.079,0.93,0.096,1.395,0.085c0.24,0.013,0.538-0.004,0.856-0.054C6.086,9.067,6.145,9.08,6.21,9.08 c1.513,0,2.709-0.437,3.586-1.308c0.876-0.875,1.31-1.948,1.31-3.223c-0.057-1.292-0.471-2.367-1.245-3.222 c-0.71-0.781-1.675-1.189-2.875-1.255C6.899,0.054,6.812,0.037,6.73,0.025C6.092-0.042,5.664,0.035,5.569,0.12 C4.438,0.271,3.501,0.667,2.769,1.314C1.812,2.161,1.336,3.239,1.336,4.549c0,1.275,0.436,2.349,1.299,3.223 C3.231,8.368,3.98,8.746,4.878,8.934C4.681,8.958,4.487,8.979,4.313,8.987C4.379,8.948,3.969,8.868,3.542,8.83 c-0.039,0.01,0.083,0.048,0.117,0.07C3.293,8.822,2.934,8.714,2.589,8.549C1.382,7.959,0.469,6.73,0.27,5.361 C0.044,4.007,0.411,2.512,1.416,1.556c0.971-0.984,2.349-1.404,3.657-1.464C5.098,0.091,5.125,0.09,5.147,0.089 c1.046-0.03-0.288-0.102-0.816-0.008C4.098,0.129,3.857,0.157,3.628,0.229C3.571,0.248,3.526,0.263,3.481,0.276 C2.407,0.598,1.403,1.239,0.779,2.226c-0.782,1.24-0.838,2.867-0.283,4.215C1.069,7.801,2.358,8.807,3.771,9.035z"/> <path d="M44.68,40.648c-0.194,0.152-0.529,0.436-0.89,0.447c-0.699,0.068-1.674-0.01-2.95-0.008 c-2.529-0.016-6.08,0.095-9.313,0.803c-0.418-0.263,0.276-0.57-1.085-0.797c-5.307-0.117-11.134,1.229-16.778,1.328 c-1.147-0.965-5.274-1.442-7.021-0.971c-0.182,0.477,2.69,0.507,2.579,0.842c-1.055,0.412-2.822,0.069-4.45-0.367l-2.153-0.619 C2.603,41.3,2.585,41.296,2.569,41.29c-0.423-0.175-0.925-0.449-1.042-0.662c-0.005-0.001-0.004-0.009-0.004-0.015 c0.023,0.001,0.028-0.027,0.081-0.067c0.105-0.098,0.3-0.208,0.504-0.297c0.415-0.183,0.893-0.319,1.373-0.438 c1.944-0.458,4.011-0.688,6.077-0.894c2.072-0.197,4.167-0.336,6.271-0.439c0.583-0.027,1.168-0.047,1.752-0.069 c0.79,0.407,1.652,0.646,2.478,0.646c0.435-0.004,0.834-0.071,1.216-0.157h0.562c0.172,0,0.335-0.028,0.501-0.051 c-0.34,0.173-0.759,0.342-1.208,0.442c-1.207,0.323-2.384-0.005-2.33,0.166c0.686,0.303,1.859,0.447,3.011,0.097 c0.789-0.228,1.578-0.667,2.256-1.281c1.479-0.004,2.956,0.005,4.427,0.042c2.49,0.078,4.979,0.199,7.42,0.45 c0.388,0.24,0.791,0.437,1.195,0.582c1.118,0.417,2.339,0.388,3.316,0.073c0.143,0.028,0.286,0.049,0.427,0.08 c0.757,0.173,2.159,0.356,2.838,0.712c0.359,0.159,0.409,0.486,0.46,0.376c0.034-0.011,0.029-0.266-0.147-0.46 c-0.127-0.154-0.346-0.299-0.609-0.438c-0.061-0.033-0.121-0.065-0.193-0.1c-0.031-0.014-0.05-0.03-0.083-0.044 c-0.04-0.017-0.082-0.026-0.123-0.042c-0.086-0.036-0.157-0.072-0.257-0.107c-0.177-0.062-0.357-0.113-0.536-0.167 c-0.056-0.017-0.112-0.036-0.168-0.052c-0.213-0.061-0.428-0.112-0.642-0.164c0.104-0.059,0.21-0.118,0.309-0.181 c1.884-0.318,3.322-1.946,3.322-3.921v-11.06c0-2.018-0.269-3.763-0.814-5.229c-0.546-1.467-1.297-2.695-2.257-3.683 c-0.964-0.994-2.1-1.721-3.42-2.185c-0.384-0.135-0.779-0.244-1.18-0.339c-1.476-0.515-3.066-0.724-4.605-0.699 c-1.386,0.015-2.81,0.273-4.098,0.817c-0.644,0.26-1.299,0.612-1.854,1.044c-0.348,0.27-0.67,0.556-0.982,0.851 c-0.092-0.897-1.538-1.622-3.415-1.745c-0.413-0.222-0.862-0.388-1.356-0.441c-1.888-0.037-3.883-0.167-5.687,1.024 c-0.113,0.092-0.231,0.19-0.344,0.37c-0.053,0.094-0.114,0.213-0.115,0.393l0.004,0.179l0.014,0.689l0.02,1.378l0.017,2.752 l0.038,5.479c0.044,3.161,0.063,6.257,0.137,9.371c-0.004,0.088-0.01,0.168-0.013,0.259c-0.008,0.521-0.081,1.171,0.156,1.818 c0.218,0.635,0.633,1.209,1.141,1.668c0.099,0.089,0.214,0.154,0.319,0.236c-2.483,0.094-4.95,0.229-7.389,0.44 c1.143-0.701,1.913-1.952,1.913-3.391V16.646c0-2.203-1.786-3.988-3.989-3.988H6.347c-0.066-0.001-0.128-0.003-0.187,0h-0.26 c-2.202,0-3.988,1.786-3.988,3.988v18.262c0,1.547,0.891,2.873,2.178,3.534c-0.281-0.097-0.638-0.216-1-0.357 c-0.088-0.001,0.16,0.153,0.208,0.215c-0.719-0.341-1.373-0.831-1.858-1.482c-0.419-0.572-0.684-1.28-0.666-2.008l-0.01-2.164 l0.003-4.364l0.055-8.77l0.015-2.178c0.008-0.361-0.012-0.726,0.033-1.076c0.052-0.351,0.162-0.693,0.325-1.007 c0.401-0.761,1.033-1.366,1.764-1.797C3,13.431,3.046,13.398,3.084,13.38c0.021-0.011,0.042-0.021,0.063-0.031 c0.169-0.093,0.346-0.172,0.525-0.246c0.046-0.018,0.092-0.037,0.139-0.054c0.042-0.016,0.085-0.029,0.128-0.044 c0.168-0.058,0.337-0.113,0.509-0.154c0.032-0.007,0.069-0.017,0.099-0.024c0.57-0.117,0.848-0.105,0.906-0.129 c0.059-0.014-0.108-0.044-0.394-0.04c-0.506-0.015-1.337,0.213-1.872,0.479c-0.02,0.009-0.036,0.018-0.054,0.027 c-0.053,0.027-0.119,0.053-0.164,0.081c-0.051,0.029-0.099,0.064-0.149,0.095c-0.03,0.019-0.072,0.037-0.099,0.056 c-0.03,0.019-0.058,0.043-0.087,0.063c-0.082,0.055-0.163,0.111-0.242,0.17c-0.038,0.029-0.076,0.058-0.114,0.088 c-0.042,0.033-0.082,0.066-0.122,0.101c-0.102,0.086-0.198,0.177-0.292,0.271c-0.036,0.035-0.076,0.066-0.11,0.102 c-0.018,0.019-0.027,0.033-0.044,0.052c-0.054,0.059-0.104,0.121-0.155,0.182c-0.049,0.06-0.093,0.115-0.13,0.167 c-0.04,0.054-0.085,0.103-0.123,0.158c-0.44,0.621-0.667,1.419-0.622,2.178l-0.028,4.528l-0.054,9.141 c0,1.527-0.017,3.031,0.01,4.562c0.154,1.588,1.358,2.755,2.666,3.372c-0.425,0.031-0.815,0.134-1.105,0.28 c-0.45,0.228-0.652,0.525-0.477,0.628c-0.232,0.032-0.479,0.068-0.767,0.203c-0.143,0.067-0.303,0.165-0.459,0.349 C0.39,40.082,0.313,40.2,0.26,40.346c-0.03,0.069-0.046,0.152-0.062,0.232l-0.005,0.029l-0.001,0.005l0.003,0.079l-0.001,0.004 L0.193,40.7L0.18,40.722l-0.013,0.044c-0.001,0.087,0.019,0.227,0.044,0.325c0.018,0.074,0.042,0.153,0.069,0.224 c0.053,0.137,0.115,0.253,0.179,0.357c0.126,0.201,0.254,0.353,0.381,0.494c0.249,0.268,0.494,0.479,0.738,0.671 c0.972,0.748,1.973,1.241,2.938,1.522c0.327-0.047-0.466-0.46,0.057-0.442c2.087,1.555,5.834,1.52,6.02,0.846 c-1.413-0.151-2.84-0.497-4.254-0.969c-1.137-0.39-2.276-0.843-3.367-1.42c0.083,0.037,0.165,0.077,0.249,0.112 c0.852,0.351,1.731,0.616,2.622,0.838c1.782,0.438,3.612,0.69,5.459,0.846c3.698,0.302,7.468,0.191,11.212-0.028 c3.747-0.225,7.47-0.559,11.123-0.819l5.445-0.365c0.905-0.062,1.808-0.121,2.729-0.221c0.463-0.054,0.928-0.112,1.423-0.221 c0.248-0.056,0.504-0.122,0.787-0.232c0.278-0.126,0.603-0.235,0.992-0.709c0.104-0.347,0.068-0.67-0.026-0.822 C44.895,40.594,44.786,40.589,44.68,40.648z M34.588,20.56c0.73,1.087,1.098,2.519,1.098,4.304v10.044 c0,1.417,0.744,2.652,1.855,3.359c-0.325-0.115-0.642-0.264-0.94-0.452c-0.637-0.394-1.2-0.935-1.55-1.604 c-0.171-0.333-0.287-0.702-0.324-1.069c-0.029-0.38-0.02-0.79-0.029-1.184l-0.023-4.803l0.027-4.855 c-0.06-1.616-0.416-3.378-1.697-4.613c-0.324-0.287-0.698-0.504-1.094-0.665C33.111,19.199,34.011,19.702,34.588,20.56z M25.801,16.427c0.014-0.026,0.024-0.688,0.026-1.544c1.985-2.078,4.956-2.988,7.771-2.815c0.077,0.003,0.155,0.014,0.233,0.018 c-1.036,0.031-1.979,0.149-2.803,0.395c-0.938,0.285-1.737,0.636-2.402,1.062c-0.67,0.431-1.219,0.897-1.68,1.397 c-0.215,0.235-0.411,0.467-0.589,0.693c-0.312,0.396-0.527,0.77-0.539,0.804C25.809,16.472,25.787,16.457,25.801,16.427z M25.828,34.908V24.234c0-0.399,0.017-0.781,0.052-1.132c0.029-0.27,0.083-0.512,0.153-0.743c0.228-0.355,0.482-0.706,0.762-1.011 c0.2-0.214,0.461-0.457,0.621-0.559l0.225-0.154c0.075-0.052,0.102-0.047,0.151-0.077c0.072-0.043,0.217-0.091,0.328-0.14 c0.94-0.326,2.404-0.26,3.254,0.128c0.421,0.186,0.746,0.496,0.923,0.801c0.077,0.141,0.205,0.335,0.239,0.431 c0.041,0.112,0.09,0.18,0.135,0.321c0.099,0.252,0.178,0.519,0.243,0.796c0.131,0.554,0.194,1.151,0.208,1.766l0.046,2.039 c0.188,2.117,0.354,0.996,0.532,1.624c-0.077,1.278-0.125,2.591-0.147,3.9l-0.015,1.96l0.002,0.487l0.002,0.278l0.016,0.265 c0.044,0.487,0.152,0.864,0.315,1.256c0.298,0.664,0.715,1.201,1.189,1.641c-1.274-0.109-2.554-0.198-3.838-0.259 c-2.19-0.099-4.392-0.139-6.594-0.142C25.358,36.99,25.828,36.012,25.828,34.908z M15.696,25.847 c-0.098-0.19-0.142,0.663-0.23,0.65l-0.091-5.335l-0.048-4.644l-0.047-2.336c0-0.087-0.022-0.207,0.038-0.314 c0.05-0.1,0.123-0.175,0.199-0.242c0.154-0.134,0.325-0.238,0.502-0.329c0.353-0.182,0.727-0.315,1.108-0.42 c0.762-0.208,1.557-0.299,2.346-0.289c0.599,0.021,1.229-0.047,1.837,0.07h-0.888c-2.203,0-3.985,0.407-3.976,0.912 c0.004,0.262,0.01,0.566,0.015,0.916c0.021,0.912,0.035,2.014,0.035,3.304v4.235v4.666c0,2.558-0.011,5.298-0.031,8.216 c-0.001,0.148,0.026,0.29,0.041,0.435c-0.019-0.045-0.043-0.089-0.058-0.135c-0.021-0.067-0.031-0.074-0.05-0.15l-0.021-0.142 l-0.005-0.035c0,0.06-0.002-0.004-0.003,0l-0.008-0.071l-0.138-1.132c-0.194-1.5-0.427-2.949-0.616-4.193 C15.817,29.776,16.008,27.821,15.696,25.847z M15.683,35.205c0.243,0.913,0.842,1.637,1.606,2.127 c0.078,0.102,0.156,0.204,0.243,0.298c-0.005-0.003-0.01-0.005-0.015-0.008C16.609,37.082,15.855,36.213,15.683,35.205z M1.505,40.631c-0.033,0.044-0.035-0.022-0.047-0.045c0.07,0.054,0.028,0.017,0.055,0.03C1.511,40.62,1.513,40.614,1.505,40.631z M4.622,38.668c0.036,0.012,0.071,0.021,0.107,0.033C4.69,38.699,4.65,38.703,4.612,38.7C4.628,38.691,4.629,38.68,4.622,38.668z M4.326,38.899c-0.088,0.017-0.178,0.027-0.266,0.043C3.924,38.972,3.79,39,3.654,39.026c-0.059-0.072,0.076-0.167,0.197-0.26 C4.007,38.82,4.166,38.863,4.326,38.899z"/> </g> </g> </g>
</svg>