<?xml version="1.0" encoding="utf-8"?>

<!DOCTYPE svg PUBLIC "-//W3C//DTD SVG 1.1//EN" "http://www.w3.org/Graphics/SVG/1.1/DTD/svg11.dtd">
<!-- Uploaded to: SVG Repo, www.svgrepo.com, Generator: SVG Repo Mixer Tools -->
<svg height="800px" width="800px" version="1.1" id="_x32_" xmlns="http://www.w3.org/2000/svg" xmlns:xlink="http://www.w3.org/1999/xlink" 
	 viewBox="0 0 512 512"  xml:space="preserve">
<style type="text/css">
	.st0{fill:#000000;}
</style>
<g>
	<path class="st0" d="M453.393,461.455L305.632,184.611l94.211-65.83c14.817-9.153,19.413-28.582,10.267-43.398
		c-9.153-14.825-28.582-19.421-43.407-10.268L69.016,238.595c-14.825,9.146-19.421,28.582-10.268,43.399
		c9.154,14.825,28.582,19.413,43.398,10.268l93.53-43.476l41.294,63.253l-51.26,43.221c-22.16,19.096-21.974,44.769-6.499,65.845
		l61.698,68.786c10.228,15.497,31.073,19.777,46.571,9.563c15.498-10.22,19.785-31.065,9.564-46.563l-45.28-53.868l59.152-38.934
		l84.384,135.218c9.347,16.04,29.928,21.464,45.96,12.117C457.308,498.076,462.724,477.494,453.393,461.455z"/>
	<path class="st0" d="M187.011,150.761c38.926-5.138,66.325-40.854,61.186-79.788c-0.789-5.912-2.274-11.552-4.379-16.86
		c-2.515-17.416,6.22-29.696-4.798-43.7c-15.722-19.986-76.693-9.269-107.426,15.76c-17.704,15.119-27.645,38.61-24.373,63.4
		C112.36,128.508,148.076,155.898,187.011,150.761z M198.57,58.175l9.873,29.132l-67.686,23.003l-14.299-27.692L198.57,58.175z"/>
</g>
</svg>